<?xml version="1.0" standalone="no"?><!DOCTYPE svg PUBLIC "-//W3C//DTD SVG 1.1//EN" "http://www.w3.org/Graphics/SVG/1.1/DTD/svg11.dtd"><svg t="1767881968123" class="icon" viewBox="0 0 1024 1024" version="1.1" xmlns="http://www.w3.org/2000/svg" p-id="6522" xmlns:xlink="http://www.w3.org/1999/xlink" width="200" height="200"><path d="M327.68 836.754286c-33.645714 8.777143-68.754286-2.925714-90.697143-32.182857-86.308571-115.565714-96.548571-270.628571-23.405714-396.434286 81.92-141.897143 248.685714-210.651429 406.674286-166.765714 19.017143 4.388571 30.72 20.48 32.182857 39.497142 1.462857 19.017143-8.777143 36.571429-26.331429 43.885715-8.777143 4.388571-16.091429 7.314286-24.868571 10.24-45.348571 14.628571-83.382857 45.348571-106.788572 86.308571-23.405714 40.96-30.72 89.234286-21.942857 136.045714 13.165714 59.977143 2.925714 122.88-27.794286 177.005715-23.405714 40.96-58.514286 74.605714-99.474285 96.548571-5.851429 2.925714-11.702857 4.388571-17.554286 5.851429z m119.954286-538.331429c-74.605714 20.48-141.897143 68.754286-182.857143 140.434286-59.977143 105.325714-52.662857 235.52 20.48 332.068571 7.314286 10.24 21.942857 14.628571 33.645714 8.777143 32.182857-17.554286 58.514286-42.422857 77.531429-73.142857 23.405714-40.96 30.72-89.234286 21.942857-136.045714-13.165714-59.977143-2.925714-122.88 27.794286-177.005715 26.331429-45.348571 65.828571-81.92 114.102857-102.4-39.497143-4.388571-77.531429-1.462857-112.64 7.314286z" fill="#FF6AD4" p-id="6523"></path><path d="M605.622857 896.731429c-46.811429 13.165714-96.548571 16.091429-147.748571 8.777142-19.017143-2.925714-35.108571-17.554286-36.571429-38.034285-2.925714-19.017143 7.314286-38.034286 24.868572-46.811429 10.24-4.388571 14.628571-7.314286 16.091428-8.777143 24.868571-16.091429 46.811429-38.034286 61.44-64.365714 23.405714-40.96 30.72-89.234286 21.942857-136.045714-13.165714-59.977143-2.925714-122.88 27.794286-177.005715 30.72-52.662857 80.457143-93.622857 138.971429-112.64h1.462857c38.034286-13.165714 78.994286 1.462857 100.937143 33.645715 73.142857 114.102857 76.068571 257.462857 8.777142 373.028571-48.274286 84.845714-127.268571 143.36-217.965714 168.228572z m-95.085714-46.811429c108.251429 1.462857 207.725714-55.588571 263.314286-150.674286 57.051429-98.011429 54.125714-217.965714-7.314286-313.051428-5.851429-10.24-19.017143-14.628571-32.182857-10.24l-2.925715 1.462857c-45.348571 14.628571-83.382857 45.348571-106.788571 86.308571-23.405714 40.96-30.72 89.234286-21.942857 136.045715 13.165714 59.977143 2.925714 122.88-27.794286 177.005714-16.091429 27.794286-38.034286 52.662857-64.365714 73.142857z" fill="#A06AFF" p-id="6524"></path><path d="M576.365714 352.548571c8.777143-2.925714 17.554286-5.851429 24.868572-10.24 17.554286-7.314286 27.794286-24.868571 26.331428-43.885714-1.462857-19.017143-14.628571-35.108571-32.182857-39.497143-157.988571-42.422857-324.754286 24.868571-406.674286 166.765715-71.68 124.342857-62.902857 280.868571 23.405715 396.434285 21.942857 27.794286 57.051429 40.96 90.697143 32.182857 5.851429-1.462857 11.702857-4.388571 17.554285-7.314285 42.422857-21.942857 76.068571-55.588571 99.474286-96.548572 30.72-52.662857 40.96-115.565714 27.794286-177.005714-10.24-46.811429-1.462857-95.085714 21.942857-136.045714 23.405714-39.497143 61.44-70.217143 106.788571-84.845715zM418.377143 409.6c-30.72 52.662857-40.96 115.565714-27.794286 177.005714 10.24 46.811429 1.462857 95.085714-21.942857 136.045715-17.554286 30.72-45.348571 57.051429-77.531429 73.142857-11.702857 5.851429-24.868571 2.925714-33.645714-8.777143-73.142857-96.548571-80.457143-226.742857-20.48-332.068572 40.96-71.68 108.251429-119.954286 182.857143-140.434285 35.108571-10.24 73.142857-13.165714 111.177143-8.777143-46.811429 21.942857-86.308571 58.514286-112.64 103.862857z" fill="#FF6AD4" opacity=".2" p-id="6525"></path><path d="M789.942857 371.565714c-20.48-32.182857-62.902857-46.811429-100.937143-33.645714H687.542857c-58.514286 19.017143-108.251429 59.977143-138.971428 112.64-30.72 52.662857-40.96 115.565714-27.794286 177.005714 10.24 46.811429 1.462857 95.085714-21.942857 136.045715-14.628571 26.331429-36.571429 48.274286-61.44 64.365714-1.462857 1.462857-5.851429 4.388571-16.091429 8.777143-17.554286 8.777143-27.794286 27.794286-24.868571 46.811428 2.925714 19.017143 17.554286 35.108571 36.571428 38.034286 49.737143 7.314286 100.937143 4.388571 147.748572-8.777143 90.697143-23.405714 168.228571-83.382857 217.965714-168.228571 67.291429-115.565714 62.902857-258.925714-8.777143-373.028572z m-42.422857 343.771429c-55.588571 95.085714-155.062857 152.137143-263.314286 150.674286 26.331429-20.48 48.274286-45.348571 65.828572-74.605715 30.72-52.662857 40.96-115.565714 27.794285-177.005714-10.24-46.811429-1.462857-95.085714 21.942858-136.045714 23.405714-40.96 61.44-71.68 106.788571-86.308572l2.925714-1.462857c13.165714-4.388571 26.331429 0 32.182857 10.24 59.977143 98.011429 61.44 217.965714 5.851429 314.514286z" fill="#FF6AD4" opacity=".2" p-id="6526"></path><path d="M569.051429 940.617143c-10.24 0-19.017143 8.777143-19.017143 19.017143 0 10.24 8.777143 19.017143 19.017143 19.017143 10.24 0 19.017143-8.777143 19.017142-19.017143 0-11.702857-8.777143-19.017143-19.017142-19.017143z" fill="#F596D7" p-id="6527"></path><path d="M863.085714 351.085714c-10.24 2.925714-14.628571 14.628571-11.702857 23.405715 2.925714 10.24 14.628571 14.628571 23.405714 11.702857 10.24-2.925714 14.628571-14.628571 11.702858-23.405715-2.925714-10.24-14.628571-16.091429-23.405715-11.702857z" fill="#A06AFF" p-id="6528"></path><path d="M253.074286 222.354286c-8.777143 2.925714-13.165714 13.165714-10.24 21.942857 2.925714 8.777143 13.165714 13.165714 21.942857 10.24 8.777143-2.925714 13.165714-13.165714 10.24-21.942857-2.925714-8.777143-13.165714-13.165714-21.942857-10.24z" fill="#FF6AD4" p-id="6529"></path><path d="M285.257143 873.325714c-8.777143 0-16.091429 7.314286-14.628572 16.091429 0 8.777143 7.314286 16.091429 16.091429 14.628571 8.777143 0 16.091429-7.314286 14.628571-16.091428 0-8.777143-7.314286-14.628571-16.091428-14.628572z" fill="#B88EFF" p-id="6530"></path><path d="M708.022857 48.274286c-8.777143 2.925714-14.628571 13.165714-10.24 21.942857 2.925714 8.777143 13.165714 14.628571 21.942857 10.24 8.777143-2.925714 14.628571-13.165714 10.24-21.942857-2.925714-8.777143-13.165714-13.165714-21.942857-10.24z" fill="#A06AFF" p-id="6531"></path><path d="M639.268571 106.788571c-8.777143 2.925714-11.702857 10.24-10.24 19.017143 2.925714 7.314286 11.702857 11.702857 19.017143 8.777143 8.777143-2.925714 13.165714-10.24 10.24-19.017143-2.925714-7.314286-11.702857-11.702857-19.017143-8.777143z" fill="#B88EFF" p-id="6532"></path></svg>