<svg width="800" height="600" xmlns="http://www.w3.org/2000/svg">

 <g>
  <title>Layer 1</title>
  <g>

   <g>
    <g>
     <path d="m250,350l0,25s0,37.5 50,50s250,-37.5 250,-37.5l0,-37.5l-300,0z" opacity="0.49" fill="#7f00ff"/>
    </g>
    <g>
     <path d="m550,400s-12.5,37.5 -50,37.5s-128.95,-37.5 -188.6,-75s134.21,0 134.21,0l104.39,37.5z" opacity="0.49" fill="#7f00ff"/>
    </g>
    <g>
     <path d="m250,362.5l0,12.5a241.47,241.47 0 0 0 112.5,50c73.6,11.69 130.61,-14.86 150,-25l37.5,-37.5l-300,0z" opacity="0.38" fill="#7f00ff"/>
    </g>
    <g>
     <path d="m250,162.5l0,212.5s62.5,-12.5 150,25s150,0 150,0l0,-237.5l-300,0z" fill="#7f00ff"/>
    </g>
   </g>
  </g>
 </g>
</svg>